<svg width="25" height="24" viewBox="0 0 25 24" fill="none" xmlns="http://www.w3.org/2000/svg">
<g clip-path="url(#clip0_6_1224)">
<path fill-rule="evenodd" clip-rule="evenodd" d="M22.25 19.5C22.25 19.9142 21.9142 20.25 21.5 20.25H3.5C3.08579 20.25 2.75 19.9142 2.75 19.5V4.5C2.75 4.08579 3.08579 3.75 3.5 3.75C3.91421 3.75 4.25 4.08579 4.25 4.5V13.3472L9.00594 9.1875C9.27266 8.95401 9.66644 8.93915 9.95 9.15187L15.4634 13.2872L21.0059 8.4375C21.204 8.24149 21.4943 8.1714 21.7599 8.2555C22.0256 8.33959 22.2227 8.56402 22.2718 8.83828C22.3209 9.11254 22.214 9.39143 21.9941 9.5625L15.9941 14.8125C15.7273 15.046 15.3336 15.0608 15.05 14.8481L9.53656 10.7147L4.25 15.3403V18.75H21.5C21.9142 18.75 22.25 19.0858 22.25 19.5Z" fill="#171412"/>
</g>
<defs>
<clipPath id="clip0_6_1224">
<rect width="24" height="24" fill="white" transform="translate(0.5)"/>
</clipPath>
</defs>
</svg>
