<svg width="25" height="24" viewBox="0 0 25 24" fill="none" xmlns="http://www.w3.org/2000/svg">
<g clip-path="url(#clip0_6_1214)">
<path fill-rule="evenodd" clip-rule="evenodd" d="M20 3.75H5C4.17157 3.75 3.5 4.42157 3.5 5.25V10.7606C3.5 19.1616 10.6081 21.9487 12.0312 22.4222C12.3352 22.5256 12.6648 22.5256 12.9688 22.4222C14.3938 21.9487 21.5 19.1616 21.5 10.7606V5.25C21.5 4.42157 20.8284 3.75 20 3.75ZM20 10.7616C20 18.1134 13.7797 20.5697 12.5 20.9972C11.2316 20.5744 5 18.12 5 10.7616V5.25H20V10.7616ZM8.21938 13.2806C7.92632 12.9876 7.92632 12.5124 8.21938 12.2194C8.51243 11.9263 8.98757 11.9263 9.28063 12.2194L11 13.9388L15.7194 9.21937C16.0124 8.92632 16.4876 8.92632 16.7806 9.21937C17.0737 9.51243 17.0737 9.98757 16.7806 10.2806L11.5306 15.5306C11.3899 15.6715 11.1991 15.7506 11 15.7506C10.8009 15.7506 10.6101 15.6715 10.4694 15.5306L8.21938 13.2806Z" fill="#171412"/>
</g>
<defs>
<clipPath id="clip0_6_1214">
<rect width="24" height="24" fill="white" transform="translate(0.5)"/>
</clipPath>
</defs>
</svg>
