<svg width="25" height="24" viewBox="0 0 25 24" fill="none" xmlns="http://www.w3.org/2000/svg">
<path fill-rule="evenodd" clip-rule="evenodd" d="M12.5 2.25C7.11522 2.25 2.75 6.61522 2.75 12C2.75 17.3848 7.11522 21.75 12.5 21.75C17.8848 21.75 22.25 17.3848 22.25 12C22.2443 6.61758 17.8824 2.25568 12.5 2.25ZM12.5 20.25C7.94365 20.25 4.25 16.5563 4.25 12C4.25 7.44365 7.94365 3.75 12.5 3.75C17.0563 3.75 20.75 7.44365 20.75 12C20.7448 16.5542 17.0542 20.2448 12.5 20.25ZM18.5 12C18.5 12.4142 18.1642 12.75 17.75 12.75H12.5C12.0858 12.75 11.75 12.4142 11.75 12V6.75C11.75 6.33579 12.0858 6 12.5 6C12.9142 6 13.25 6.33579 13.25 6.75V11.25H17.75C18.1642 11.25 18.5 11.5858 18.5 12Z" fill="#171412"/>
</svg>
